<mxfile host="app.diagrams.net" agent="Mozilla/5.0 (Windows NT 10.0; Win64; x64) AppleWebKit/537.36 (KHTML, like Gecko) Chrome/129.0.0.0 Safari/537.36" version="24.7.16">
  <diagram id="jfHNPy6ff31aCc8ErUTZ" name="Page-1">
    <mxGraphModel dx="1481" dy="771" grid="1" gridSize="10" guides="1" tooltips="1" connect="1" arrows="1" fold="1" page="1" pageScale="1" pageWidth="850" pageHeight="1100" math="0" shadow="0">
      <root>
        <mxCell id="0" />
        <mxCell id="1" parent="0" />
        <mxCell id="9" value="Az Container Instance" style="aspect=fixed;html=1;points=[];align=center;image;fontSize=12;image=img/lib/azure2/compute/Container_Instances.svg;strokeWidth=2;strokeColor=#00CCCC;" parent="1" vertex="1">
          <mxGeometry x="403" y="357" width="64" height="68" as="geometry" />
        </mxCell>
        <mxCell id="12" style="edgeStyle=none;html=1;entryX=0.489;entryY=-0.014;entryDx=0;entryDy=0;entryPerimeter=0;strokeWidth=2;strokeColor=#00CCCC;" parent="1" source="11" target="9" edge="1">
          <mxGeometry relative="1" as="geometry" />
        </mxCell>
        <mxCell id="11" value="" style="sketch=0;aspect=fixed;html=1;points=[];align=center;image;fontSize=12;image=img/lib/mscae/Docker.svg;strokeWidth=2;strokeColor=#00CCCC;" parent="1" vertex="1">
          <mxGeometry x="397.79999999999995" y="111" width="74.39" height="61" as="geometry" />
        </mxCell>
        <mxCell id="14" style="edgeStyle=none;html=1;strokeWidth=2;strokeColor=#00CCCC;" parent="1" source="13" target="11" edge="1">
          <mxGeometry relative="1" as="geometry" />
        </mxCell>
        <mxCell id="13" value="app.py" style="outlineConnect=0;dashed=0;verticalLabelPosition=bottom;verticalAlign=top;align=center;html=1;shape=mxgraph.aws3.android;fillColor=#FFD44F;gradientColor=none;strokeWidth=2;strokeColor=#00CCCC;" parent="1" vertex="1">
          <mxGeometry x="210" y="100" width="73.5" height="84" as="geometry" />
        </mxCell>
        <mxCell id="19" style="edgeStyle=none;html=1;entryX=0.5;entryY=1;entryDx=0;entryDy=0;strokeWidth=2;strokeColor=#00CCCC;" parent="1" source="18" edge="1">
          <mxGeometry relative="1" as="geometry">
            <mxPoint x="910" y="501" as="targetPoint" />
          </mxGeometry>
        </mxCell>
        <mxCell id="18" value="Az API" style="aspect=fixed;html=1;points=[];align=center;image;fontSize=12;image=img/lib/azure2/app_services/API_Management_Services.svg;strokeWidth=2;strokeColor=#00CCCC;" parent="1" vertex="1">
          <mxGeometry x="877.5" y="588" width="65" height="60" as="geometry" />
        </mxCell>
        <mxCell id="20" value="" style="sketch=0;html=1;aspect=fixed;strokeColor=#00CCCC;shadow=0;align=center;verticalAlign=top;fillColor=#3B8DF1;shape=mxgraph.gcp2.enhance_ui_2;strokeWidth=2;" parent="1" vertex="1">
          <mxGeometry x="920" y="346" width="100" height="91" as="geometry" />
        </mxCell>
        <mxCell id="22" style="edgeStyle=none;html=1;strokeWidth=2;strokeColor=#00CCCC;" parent="1" target="18" edge="1">
          <mxGeometry relative="1" as="geometry">
            <mxPoint x="720" y="618" as="sourcePoint" />
          </mxGeometry>
        </mxCell>
        <mxCell id="21" value="User" style="html=1;verticalLabelPosition=bottom;align=center;labelBackgroundColor=#ffffff;verticalAlign=top;strokeWidth=2;strokeColor=#00CCCC;shadow=0;dashed=0;shape=mxgraph.ios7.icons.user;" parent="1" vertex="1">
          <mxGeometry x="670" y="593" width="50" height="50" as="geometry" />
        </mxCell>
        <mxCell id="23" value="" style="shape=flexArrow;endArrow=classic;html=1;entryX=0;entryY=0.5;entryDx=0;entryDy=0;exitX=1;exitY=0.5;exitDx=0;exitDy=0;strokeWidth=2;strokeColor=#00CCCC;" parent="1" edge="1" target="6NX5-VdJtl-U2JAduMW6-25" source="6NX5-VdJtl-U2JAduMW6-24">
          <mxGeometry width="50" height="50" relative="1" as="geometry">
            <mxPoint x="540" y="390.41" as="sourcePoint" />
            <mxPoint x="600" y="390.41" as="targetPoint" />
          </mxGeometry>
        </mxCell>
        <mxCell id="6NX5-VdJtl-U2JAduMW6-24" value="" style="swimlane;startSize=0;strokeWidth=2;strokeColor=#00CCCC;" vertex="1" parent="1">
          <mxGeometry x="210" y="290" width="330" height="210" as="geometry" />
        </mxCell>
        <mxCell id="6NX5-VdJtl-U2JAduMW6-25" value="" style="swimlane;startSize=0;strokeWidth=2;strokeColor=#00CCCC;" vertex="1" parent="1">
          <mxGeometry x="740" y="290" width="330" height="210" as="geometry" />
        </mxCell>
        <mxCell id="6NX5-VdJtl-U2JAduMW6-26" value="Az Web App" style="aspect=fixed;html=1;points=[];align=center;image;fontSize=12;image=img/lib/azure2/other/Web_App_Database.svg;strokeWidth=2;strokeColor=#00CCCC;" vertex="1" parent="6NX5-VdJtl-U2JAduMW6-25">
          <mxGeometry x="-30" y="-30" width="68" height="68" as="geometry" />
        </mxCell>
        <mxCell id="6NX5-VdJtl-U2JAduMW6-27" value="Az Container Registry" style="aspect=fixed;html=1;points=[];align=center;image;fontSize=12;image=img/lib/azure2/containers/Container_Registries.svg;strokeWidth=2;strokeColor=#00CCCC;" vertex="1" parent="1">
          <mxGeometry x="180" y="270" width="66.89" height="60" as="geometry" />
        </mxCell>
      </root>
    </mxGraphModel>
  </diagram>
</mxfile>
